<svg width="233" height="172" viewBox="0 0 233 172" fill="none" xmlns="http://www.w3.org/2000/svg">
<g clip-path="url(#clip0_384_5088)">
<path opacity="0.1" d="M2.50781 82.4629C6.18703 96.6929 13.9691 108.994 26.267 114.957C51.833 127.349 109.491 120.958 152.523 113.621C174.783 109.827 194.348 99.3553 208.561 84.6187L2.50781 82.4629Z" fill="#EB5757"/>
<path opacity="0.1" d="M228.166 15.4797H204.555C203.435 15.4797 202.515 14.6488 202.515 13.6334C202.515 12.6181 203.435 11.785 204.555 11.785H208.639C207.516 11.785 206.599 10.954 206.599 9.93656C206.599 8.91907 207.516 8.09024 208.639 8.09024H205.724C204.602 8.09024 203.682 7.25929 203.682 6.2418C203.682 5.22432 204.602 4.39549 205.724 4.39549H218.048C215.313 3.24445 212.117 2.42622 208.433 1.99591C174.829 -1.91082 162.832 0.673176 158.6 3.32924C153.325 6.68112 147.465 9.0069 141.328 10.1846C120.596 14.0574 81.8235 18.7166 46.6814 8.70073C29.2152 3.71292 16.2331 12.1305 8.45312 26.2015H232.267C231.974 22.1125 231.1 18.3351 229.494 15.0304C229.114 15.3242 228.646 15.4823 228.166 15.4797Z" fill="#EB5757"/>
<path opacity="0.1" d="M0.506173 52.7617C-0.400719 61.0376 -0.09244 69.4018 1.42121 77.5884L208.72 84.4544C214.426 78.5315 219.274 71.8371 223.123 64.5667L0.506173 52.7617ZM82.4953 70.4724H78.4136C79.5362 70.4724 80.4555 71.3054 80.4555 72.3208C80.4555 73.3362 79.5362 74.1671 78.4136 74.1671H54.8027C53.6822 74.1671 52.7629 73.3362 52.7629 72.3208C52.7629 71.3054 53.6822 70.4724 54.8027 70.4724H58.8864C57.7638 70.4724 56.8467 69.6414 56.8467 68.6261C56.8467 67.6107 57.7638 66.7776 58.8864 66.7776H55.9698C54.8471 66.7776 53.9279 65.9467 53.9279 64.9313C53.9279 63.9159 54.8471 63.0829 55.9698 63.0829H79.5807C80.7033 63.0829 81.6205 63.9138 81.6205 64.9313C81.6205 65.9488 80.7033 66.7776 79.5807 66.7776H82.4953C83.6179 66.7776 84.535 67.6086 84.535 68.6261C84.535 69.6435 83.6179 70.4724 82.4953 70.4724Z" fill="#EB5757"/>
<path opacity="0.1" d="M232.275 26.3301L5.95548 31.3115C3.2019 37.7196 1.37606 44.9649 0.535156 52.4732H228.31C229.792 48.0804 230.892 43.5676 231.597 38.9851C232.277 34.5739 232.548 30.3068 232.275 26.3301ZM46.4862 42.6629H42.4045C43.5271 42.6629 44.4464 43.496 44.4464 44.5113C44.4464 45.5267 43.5271 46.3598 42.4045 46.3598H18.7936C17.6731 46.3598 16.7538 45.5267 16.7538 44.5113C16.7538 43.496 17.6731 42.6629 18.7936 42.6629H22.8773C21.7547 42.6629 20.8376 41.8319 20.8376 40.8166C20.8376 39.8012 21.7547 38.9681 22.8773 38.9681H19.9606C18.838 38.9681 17.9188 38.1372 17.9188 37.1218C17.9188 36.1064 18.838 35.2734 19.9606 35.2734H43.5716C44.6942 35.2734 45.6114 36.1043 45.6114 37.1218C45.6114 38.1393 44.6942 38.9681 43.5716 38.9681H46.4862C47.6088 38.9681 48.5259 39.8012 48.5259 40.8166C48.5259 41.8319 47.6088 42.6629 46.4862 42.6629Z" fill="#EB5757"/>
<path opacity="0.1" d="M115.456 165.572C167.745 165.572 210.133 161.669 210.133 156.855C210.133 152.041 167.745 148.139 115.456 148.139C63.1675 148.139 20.7793 152.041 20.7793 156.855C20.7793 161.669 63.1675 165.572 115.456 165.572Z" fill="#EB5757"/>
<path opacity="0.1" d="M178.223 95.5879C178.209 95.6621 177.952 96.7898 177.562 98.5301C177.715 97.0442 177.927 95.9779 178.223 95.5879Z" fill="black"/>
<path d="M172.066 91.1154C173.119 91.1154 173.973 90.5365 173.973 89.8223C173.973 89.1082 173.119 88.5293 172.066 88.5293C171.014 88.5293 170.16 89.1082 170.16 89.8223C170.16 90.5365 171.014 91.1154 172.066 91.1154Z" fill="#575A89"/>
<path d="M109.929 161.799C146.018 161.799 175.273 132.521 175.273 96.4046C175.273 60.288 146.018 31.0098 109.929 31.0098C73.8398 31.0098 44.584 60.288 44.584 96.4046C44.584 132.521 73.8398 161.799 109.929 161.799Z" fill="#EB5757"/>
<path d="M144.215 129.268C144.215 139.591 127.999 130.149 110.613 130.149C93.2274 130.149 75.6426 139.201 75.6426 128.878C75.6426 122.991 81.2472 114.804 89.2877 108.858C95.3456 104.377 102.784 101.168 110.257 101.168C117.942 101.168 125.47 104.642 131.475 109.412C139.053 115.426 144.215 123.506 144.215 129.268Z" fill="#444053"/>
<path d="M131.474 109.408C122.233 108.015 105.518 106.317 89.2891 108.855C95.347 104.373 102.786 101.164 110.259 101.164C117.941 101.164 125.469 104.638 131.474 109.408Z" fill="#F6F8FB"/>
<path opacity="0.05" d="M75.643 50.2422C75.643 50.2422 55.9591 62.8357 56.1201 82.5347C56.2811 102.234 75.643 50.2422 75.643 50.2422Z" fill="black"/>
<path d="M175.25 14.6755C175.25 14.6755 157.415 13.6007 159.518 26.1074C159.518 26.1074 159.094 28.3162 161.102 29.3209C161.102 29.3209 161.134 28.3946 162.93 28.7083C163.571 28.8155 164.221 28.8468 164.869 28.8016C165.743 28.7421 166.575 28.3982 167.237 27.8223C167.237 27.8223 172.25 25.7512 174.201 17.5499C174.201 17.5499 175.644 15.7608 175.586 15.3029L172.576 16.5875C172.576 16.5875 173.604 18.7603 172.788 20.5663C172.788 20.5663 172.691 16.668 172.113 16.7507C171.996 16.7698 170.549 17.5032 170.549 17.5032C170.549 17.5032 172.318 21.2891 170.973 24.0385C170.973 24.0385 171.479 19.375 169.986 17.7767L167.868 19.0146C167.868 19.0146 169.935 22.9235 168.533 26.1137C168.533 26.1137 168.893 21.2213 167.423 19.3156L165.502 20.8143C165.502 20.8143 167.444 24.668 166.26 27.3135C166.26 27.3135 166.106 21.6177 165.087 21.1874C165.087 21.1874 163.407 22.6712 163.151 23.2796C163.151 23.2796 164.481 26.0756 163.657 27.5509C163.657 27.5509 163.151 23.7565 162.736 23.7353C162.736 23.7353 161.062 26.2494 160.886 27.9749C160.886 27.9749 160.961 25.41 162.329 23.4958C162.329 23.4958 160.711 23.7735 159.768 24.8249C159.768 24.8249 160.029 23.0464 162.733 22.8917C162.733 22.8917 164.117 20.9839 164.487 20.8694C164.487 20.8694 161.787 20.6426 160.149 21.3697C160.149 21.3697 161.59 19.6929 164.981 20.4539L166.887 18.9065C166.887 18.9065 163.333 18.419 161.825 18.9574C161.825 18.9574 163.56 17.4736 167.398 18.5546L169.463 17.3188C169.463 17.3188 166.432 16.6659 164.625 16.8949C164.625 16.8949 166.531 15.8668 170.066 16.9818L171.549 16.3183C171.549 16.3183 169.327 15.8816 168.677 15.8138C168.027 15.7459 167.993 15.5636 167.993 15.5636C169.404 15.334 170.851 15.5021 172.172 16.0491C172.172 16.0491 175.303 14.8726 175.25 14.6755Z" fill="#EB5757"/>
<path d="M156.956 9.11407C156.956 9.11407 148.907 8.62653 149.848 14.2778C149.848 14.2778 149.659 15.2762 150.564 15.7299C150.564 15.7299 150.577 15.3059 151.39 15.4543C151.679 15.5019 151.972 15.5161 152.265 15.4967C152.66 15.4684 153.036 15.313 153.336 15.0537C153.336 15.0537 155.601 14.1167 156.482 10.4114C156.482 10.4114 157.134 9.60374 157.117 9.396L155.758 9.97682C155.758 9.97682 156.224 10.9583 155.857 11.7744C155.857 11.7744 155.813 10.0129 155.552 10.0552C155.499 10.0552 154.845 10.3944 154.845 10.3944C154.845 10.3944 155.645 12.1051 155.042 13.3472C155.042 13.3472 155.27 11.2402 154.597 10.5174L153.639 11.077C153.639 11.077 154.573 12.8449 153.94 14.2863C153.94 14.2863 154.101 12.0754 153.438 11.2148L152.57 11.891C152.57 11.891 153.447 13.6313 152.913 14.8268C152.913 14.8268 152.843 12.2534 152.381 12.0584C152.381 12.0584 151.623 12.7283 151.506 13.0038C151.506 13.0038 152.108 14.2757 151.735 14.935C151.735 14.935 151.506 13.2201 151.312 13.2137C151.312 13.2137 150.555 14.3478 150.477 15.1215C150.513 14.4015 150.738 13.7035 151.127 13.0971C150.691 13.1796 150.289 13.3882 149.971 13.697C149.971 13.697 150.087 12.8936 151.314 12.8237C151.314 12.8237 151.939 11.963 152.106 11.91C152.106 11.91 150.886 11.8083 150.147 12.1369C150.147 12.1369 150.797 11.378 152.33 11.7129L153.178 11.0155C153.178 11.0155 151.572 10.8035 150.89 11.0367C150.89 11.0367 151.674 10.3669 153.409 10.8565L154.341 10.2969C154.341 10.2969 152.972 10.0023 152.155 10.1082C152.155 10.1082 153.017 9.64401 154.614 10.1485L155.281 9.84751C155.281 9.84751 154.277 9.65037 153.985 9.6207C153.692 9.59102 153.673 9.50835 153.673 9.50835C154.309 9.40249 154.962 9.47589 155.558 9.72033C155.558 9.72033 156.98 9.2031 156.956 9.11407Z" fill="#EB5757"/>
<path opacity="0.1" d="M12.5686 143.986C12.6696 144.133 12.7494 144.294 12.8058 144.463C14.8435 146.859 15.928 149.095 13.9708 149.15C12.145 149.203 9.94635 152.468 9.43164 153.292C9.44963 153.356 9.47084 153.419 9.49519 153.481C9.49519 153.481 12.0603 149.212 14.1551 149.15C16.2499 149.089 14.8647 146.553 12.5686 143.986Z" fill="black"/>
<path d="M14.7319 145.927C14.7319 146.464 14.6705 146.898 14.5963 146.898C14.5222 146.898 14.4629 146.474 14.4629 145.927C14.4629 145.38 14.537 145.643 14.6133 145.643C14.6895 145.643 14.7319 145.391 14.7319 145.927Z" fill="#FFD037"/>
<path d="M15.4644 146.568C14.9942 146.824 14.5854 146.979 14.5494 146.913C14.5134 146.847 14.8671 146.589 15.3373 146.332C15.8076 146.076 15.6212 146.262 15.6572 146.332C15.6932 146.402 15.9431 146.311 15.4644 146.568Z" fill="#FFD037"/>
<path d="M4.25977 145.927C4.25977 146.464 4.31907 146.898 4.39321 146.898C4.46734 146.898 4.52665 146.474 4.52665 145.927C4.52665 145.38 4.45252 145.643 4.37838 145.643C4.30425 145.643 4.25977 145.391 4.25977 145.927Z" fill="#FFD037"/>
<path d="M3.51538 146.568C3.9856 146.824 4.39652 146.979 4.43253 146.913C4.46854 146.847 4.11481 146.589 3.64458 146.332C3.17435 146.076 3.35863 146.262 3.32474 146.332C3.29085 146.402 3.04515 146.311 3.51538 146.568Z" fill="#FFD037"/>
<path d="M86.6983 87.8301C87.9417 87.7601 93.7941 87.3192 97.5114 85.1973C98.1085 84.8458 98.7829 84.647 99.475 84.6186C100.657 84.5847 102.017 85.0786 101.146 87.8428C99.7355 92.3642 91.5446 97.4517 86.4611 97.1698C81.5724 96.8984 75.7729 94.927 71.9433 87.9954C71.5764 87.3285 71.3957 86.5751 71.4202 85.8142C71.4646 84.4151 71.973 82.6621 74.5974 84.6165C78.1431 87.2556 84.8704 87.7559 86.2196 87.8301C86.3791 87.8386 86.5389 87.8386 86.6983 87.8301Z" fill="#444053"/>
<path d="M133.72 87.8301C134.963 87.7601 140.816 87.3192 144.533 85.1973C145.13 84.8458 145.804 84.647 146.496 84.6186C147.678 84.5847 149.038 85.0786 148.168 87.8428C146.757 92.3642 138.566 97.4517 133.483 97.1698C128.594 96.8984 122.794 94.927 118.965 87.9954C118.598 87.3285 118.417 86.5751 118.442 85.8142C118.486 84.4151 118.994 82.6621 121.619 84.6165C125.165 87.2556 131.892 87.7559 133.241 87.8301C133.401 87.8386 133.56 87.8386 133.72 87.8301Z" fill="#444053"/>
</g>
<defs>
<clipPath id="clip0_384_5088">
<rect width="233" height="172" fill="white"/>
</clipPath>
</defs>
</svg>
